<mxfile host="app.diagrams.net" modified="2024-02-14T05:49:48.537Z" agent="Mozilla/5.0 (Windows NT 10.0; Win64; x64) AppleWebKit/537.36 (KHTML, like Gecko) Chrome/119.0.0.0 Safari/537.36" version="23.1.4" etag="xzSVKp_lk_jZUg3DErvg" type="github">
  <diagram name="第 1 页" id="k9r1K2YOvS_ybdl0ZCWT">
    <mxGraphModel>
      <root>
        <mxCell id="0" />
        <mxCell id="1" parent="0" />
      </root>
    </mxGraphModel>
  </diagram>
</mxfile>
